<svg version="1.2" xmlns="http://www.w3.org/2000/svg" viewBox="0 -0.39400000000000546 850.394 850.394" width="851" height="851">
	<title>Logo-new</title>
	<style>
		.s0 { fill: #2e86f2 } 
		.s1 { fill: #2e86f4 } 
	</style>
	<g id="图层 1">
		<g id="&lt;Group&gt;">
			<g id="&lt;Group&gt;">
			</g>
			<path id="&lt;Path&gt;" class="s0" d="m544.8 521.75c-0.48 27.96-17.32 53.48-43.87 63.37-61.51 22.89-123.25 45.16-184.85 67.8-4.94 1.82-7.06 0.78-8.59-4.42-9.43-32.05 8.67-68.75 41.44-80.98 61.48-22.94 123.25-45.12 184.85-67.74 4.77-1.75 7.22-0.63 8.08 4.17 1.05 5.92 1.97 11.87 2.94 17.8z"/>
			<path id="&lt;Path&gt;" class="s1" d="m424.76 470.52c-71.55 0-129.76-58.21-129.76-129.76 0-71.55 58.21-129.76 129.76-129.76h101.28v56.97h-101.28c-40.14 0-72.79 32.65-72.79 72.79 0 40.14 32.65 72.79 72.79 72.79 40.14 0 72.79-32.65 72.79-72.79v-55.39h56.97v55.39c0 71.55-58.21 129.76-129.76 129.76z"/>
		</g>
	</g>
</svg>